<!-- icon666.com - MILLIONS OF FREE VECTOR ICONS --><svg viewBox="0 0 64 64" xmlns="http://www.w3.org/2000/svg" xmlns:xlink="http://www.w3.org/1999/xlink"><linearGradient id="linear-gradient" gradientUnits="userSpaceOnUse" x1="15.426" x2="72.074" y1="78.516" y2="18.647"><stop offset=".133" stop-color="#a617ff"></stop><stop offset=".477" stop-color="#6359e3"></stop><stop offset="1" stop-color="#5bcbfa"></stop></linearGradient><linearGradient id="linear-gradient-2" x1="5.184" x2="61.832" xlink:href="#linear-gradient" y1="68.825" y2="8.957"></linearGradient><linearGradient id="linear-gradient-3" x1="-6.802" x2="49.846" xlink:href="#linear-gradient" y1="57.484" y2="-2.384"></linearGradient><linearGradient id="linear-gradient-4" x1="-.561" x2="56.087" xlink:href="#linear-gradient" y1="63.389" y2="3.52"></linearGradient><linearGradient id="linear-gradient-5" x1="-10.534" x2="46.114" xlink:href="#linear-gradient" y1="53.952" y2="-5.916"></linearGradient><linearGradient id="linear-gradient-6" x1="-13.53" x2="43.118" xlink:href="#linear-gradient" y1="51.118" y2="-8.75"></linearGradient><linearGradient id="linear-gradient-7" x1="-8.299" x2="48.349" xlink:href="#linear-gradient" y1="56.067" y2="-3.802"></linearGradient><linearGradient id="linear-gradient-8" x1="9.662" x2="66.31" xlink:href="#linear-gradient" y1="73.062" y2="13.194"></linearGradient><linearGradient id="linear-gradient-9" x1="10.661" x2="67.309" xlink:href="#linear-gradient" y1="74.007" y2="14.139"></linearGradient><linearGradient id="linear-gradient-10" x1="-19.156" x2="37.492" xlink:href="#linear-gradient" y1="45.794" y2="-14.074"></linearGradient><linearGradient id="linear-gradient-11" x1="-6.493" x2="50.155" xlink:href="#linear-gradient" y1="57.776" y2="-2.093"></linearGradient><linearGradient id="linear-gradient-12" x1="1.949" x2="58.597" xlink:href="#linear-gradient" y1="65.764" y2="5.895"></linearGradient><linearGradient id="linear-gradient-13" x1="6.17" x2="62.818" xlink:href="#linear-gradient" y1="69.758" y2="9.889"></linearGradient><linearGradient id="linear-gradient-14" x1="-2.272" x2="54.376" xlink:href="#linear-gradient" y1="61.77" y2="1.901"></linearGradient><linearGradient id="linear-gradient-15" x1="-14.935" x2="41.713" xlink:href="#linear-gradient" y1="49.788" y2="-10.08"></linearGradient><linearGradient id="linear-gradient-16" x1="-10.714" x2="45.934" xlink:href="#linear-gradient" y1="53.782" y2="-6.086"></linearGradient><g id="game-shop-store-toy"><path d="m3 60h58v2h-58z" fill="url(#linear-gradient)"></path><path d="m59 58v-35.03a4.924 4.924 0 0 1 -3 1.03 4.994 4.994 0 0 1 -4-2.03 4.956 4.956 0 0 1 -8 0 4.956 4.956 0 0 1 -8 0 4.956 4.956 0 0 1 -8 0 4.956 4.956 0 0 1 -8 0 4.956 4.956 0 0 1 -8 0 4.994 4.994 0 0 1 -4 2.03 4.924 4.924 0 0 1 -3-1.03v35.03h2v-27a1 1 0 0 1 1-1h12a1 1 0 0 1 1 1v27zm-36-31a1 1 0 0 1 1-1h32a1 1 0 0 1 1 1v28a1 1 0 0 1 -1 1h-32a1 1 0 0 1 -1-1z" fill="url(#linear-gradient-2)"></path><path d="m9 35h10v1h-10z" fill="url(#linear-gradient-3)"></path><path d="m9 58h10v-20h-10zm1-13h2v4h-2z" fill="url(#linear-gradient-4)"></path><path d="m4 6h56v6h-56z" fill="url(#linear-gradient-5)"></path><path d="m5 2h54v2h-54z" fill="url(#linear-gradient-6)"></path><path d="m9 32h10v1h-10z" fill="url(#linear-gradient-7)"></path><path d="m55 28h-30v26h30zm-8 22h-14a7 7 0 0 1 0-14h6v-1a3.009 3.009 0 0 1 3-3h3v2h-3a1 1 0 0 0 -1 1v1h6a7 7 0 0 1 0 14z" fill="url(#linear-gradient-8)"></path><path d="m47 38h-14a5 5 0 0 0 0 10h14a5 5 0 0 0 0-10zm-10 6h-2v2h-2v-2h-2v-2h2v-2h2v2h2zm8 2h-2v-2h2zm0-4h-2v-2h2zm4 4h-2v-2h2zm0-4h-2v-2h2z" fill="url(#linear-gradient-9)"></path><path d="m11 19v-5h-6v5a3 3 0 0 0 6 0z" fill="url(#linear-gradient-10)"></path><path d="m35 19v-5h-6v5a3 3 0 0 0 6 0z" fill="url(#linear-gradient-11)"></path><path d="m51 19v-5h-6v5a3 3 0 0 0 6 0z" fill="url(#linear-gradient-12)"></path><path d="m59 14h-6v5a3 3 0 0 0 6 0z" fill="url(#linear-gradient-13)"></path><path d="m43 19v-5h-6v5a3 3 0 0 0 6 0z" fill="url(#linear-gradient-14)"></path><path d="m19 19v-5h-6v5a3 3 0 0 0 6 0z" fill="url(#linear-gradient-15)"></path><path d="m27 19v-5h-6v5a3 3 0 0 0 6 0z" fill="url(#linear-gradient-16)"></path></g></svg>